<?xml version="1.0" encoding="UTF-8" standalone="no"?>
<!DOCTYPE svg PUBLIC "-//W3C//DTD SVG 1.1//EN" "http://www.w3.org/Graphics/SVG/1.1/DTD/svg11.dtd">
<svg width="100%" height="100%" viewBox="0 0 24 24" version="1.1" xmlns="http://www.w3.org/2000/svg" xmlnsXlink="http://www.w3.org/1999/xlink" xmlSpace="preserve" xmlnsSerif="http://www.serif.com/" style="fill-rule:evenodd;clip-rule:evenodd;stroke-linejoin:round;stroke-miterlimit:2;">
    <path d="M5.642,9.093C6.969,5.501 9.321,2 12,2C15.984,2 19.246,9.742 19.486,14.015C19.052,12.766 18.007,11.919 16.862,12.01C15.443,12.123 14.403,13.633 14.542,15.381C14.68,17.129 15.945,18.457 17.365,18.344C17.915,18.301 18.409,18.047 18.798,17.65C17.599,20.209 14.992,22 12,22C11.124,22 10.282,21.847 9.498,21.566C10.328,20.347 10.188,18.794 9.174,18.077C8.197,17.386 6.759,17.719 5.875,18.807C5.01,17.585 4.5,16.097 4.5,14.5C4.5,14.122 4.528,13.708 4.582,13.268C4.843,13.431 5.137,13.562 5.456,13.649C6.931,14.051 8.4,13.382 8.734,12.156C9.068,10.93 8.142,9.608 6.667,9.206C6.32,9.112 5.973,9.076 5.642,9.093ZM14.025,11.041C14.525,11.395 14.584,12.173 14.156,12.778C13.728,13.383 12.975,13.587 12.475,13.234C11.974,12.88 11.916,12.102 12.344,11.496C12.772,10.891 13.525,10.687 14.025,11.041Z"/>
</svg>
