<svg viewBox="0 0 512 512" xmlns="http://www.w3.org/2000/svg">
<path fill-rule="evenodd" clip-rule="evenodd" d="M281 255c3-2 6-7 8-12 31 13 53 43 53 78 0 47-39 85-87 85-20 0-38-6-53-17-5-2-9-5-13-7-5-3-8-5-10-5-6 1-4 7-3 12 1 4 2 7 1 8-2 2-7-3-13-9-8-8-18-18-22-15-4 2-1 8 3 16l1 1c2 3 4 6 6 9 4 6 7 11 6 12-2 1-15-8-27-21-4-5-8-10-12-15v0c-9-11-16-20-20-19-5 1-2 11 3 21 2 4 5 8 7 12v0c4 6 7 11 6 11-2 1-15-12-24-28-5-10-9-21-12-29-4-9-7-16-9-16-7-2-7 12-4 32 0 2 1 4 1 6 26 84 106 145 200 145 116 0 210-92 210-205 0-108-85-196-193-204 0-5 3-15 3-15s19-46 20-56c0-1 0-2 0-2 1-11 3-31-14-31-9 0-13 7-18 15v0c-2 3-4 6-6 9-17 21-45 47-61 61-34 29-67 54-87 68v0c-9 7-15 11-17 13-14 13-64 103-64 103s-16 29-10 35c6 6 20 4 20 4s186-43 202-46c5-1 8-2 10-2 7-1 8-1 16-6zm-132-55c-10 9-27 32-27 32s31 2 48-14c17-16 13-43 13-43s-24 16-34 25z" fill="white"/>
</svg>
