<?xml version="1.0" encoding="UTF-8" standalone="no"?>
<!DOCTYPE svg PUBLIC "-//W3C//DTD SVG 1.1//EN" "http://www.w3.org/Graphics/SVG/1.1/DTD/svg11.dtd">
<svg width="100%" height="100%" viewBox="0 0 24 24" version="1.1" xmlns="http://www.w3.org/2000/svg" xmlnsXlink="http://www.w3.org/1999/xlink" xmlSpace="preserve" xmlnsSerif="http://www.serif.com/" style="fill-rule:evenodd;clip-rule:evenodd;stroke-linejoin:round;stroke-miterlimit:2;">
  <g id="Artboard1" transform="matrix(0.046875,0,0,0.046875,0,0)">
    <path d="M285.136,100.892L350.626,153.054L434.167,140.581L367.938,232.74L367.938,279.26L434.167,371.419L350.626,358.946L285.136,411.108L256,486.839L226.864,411.108L161.374,358.946L77.833,371.419L144.062,279.26L144.062,232.74L77.833,140.581L161.374,153.054L226.864,100.892L256,25.161L285.136,100.892ZM256,135.753L331.486,195.876L331.486,316.124L256,376.247L180.514,316.124L180.514,195.876L256,135.753ZM256,162.177L314.898,209.088L314.898,302.912L256,349.823L197.102,302.912L197.102,209.088L256,162.177ZM256,209.088L285.449,232.544L285.449,279.456L256,302.912L226.551,279.456L226.551,232.544L256,209.088Z" />
  </g>
</svg> 
