<?xml version="1.0" encoding="UTF-8" standalone="no"?>
<!DOCTYPE svg PUBLIC "-//W3C//DTD SVG 1.1//EN" "http://www.w3.org/Graphics/SVG/1.1/DTD/svg11.dtd">
<svg width="100%" height="100%" viewBox="0 0 24 24" version="1.1" style="fill-rule:evenodd;clip-rule:evenodd;stroke-linejoin:round;stroke-miterlimit:2;">
    <path d="M12,2C17.519,2 22,6.481 22,12C22,17.519 17.519,22 12,22C6.481,22 2,17.519 2,12C2,6.481 6.481,2 12,2ZM12,4C16.415,4 20,7.585 20,12C20,16.415 16.415,20 12,20C7.585,20 4,16.415 4,12C4,7.585 7.585,4 12,4Z"/>
    <g transform="matrix(0.6,0,0,0.6,4.8,4.8)">
        <path d="M12,2C17.519,2 22,6.481 22,12C22,17.519 17.519,22 12,22C6.481,22 2,17.519 2,12C2,6.481 6.481,2 12,2ZM12,5.333C15.679,5.333 18.667,8.321 18.667,12C18.667,15.679 15.679,18.667 12,18.667C8.321,18.667 5.333,15.679 5.333,12C5.333,8.321 8.321,5.333 12,5.333Z"/>
    </g>
    <g transform="matrix(0.2,0,0,0.2,9.6,9.6)">
        <circle cx="12" cy="12" r="10"/>
    </g>
</svg>
