<?xml version="1.0" encoding="UTF-8" standalone="no"?>
<!DOCTYPE svg PUBLIC "-//W3C//DTD SVG 1.1//EN" "http://www.w3.org/Graphics/SVG/1.1/DTD/svg11.dtd">
<svg width="100%" height="100%" viewBox="0 0 24 24" version="1.1" style="fill-rule:evenodd;clip-rule:evenodd;stroke-linejoin:round;stroke-miterlimit:2;">
    <g transform="matrix(0.5,0.866025,0.866025,-0.5,-4.3923,7.6077)">
        <path d="M12,2C17.486,2 22,6.514 22,12C22,17.486 17.486,22 12,22C6.514,22 2,17.486 2,12C2,6.514 6.514,2 12,2M12,4C7.611,4 4,7.611 4,12C4,16.389 7.611,20 12,20C9.806,20 8,18.194 8,16C8,13.806 9.806,12 12,12C14.194,12 16,10.194 16,8C16,5.806 14.194,4 12,4" style="fill-rule:nonzero;"/>
    </g>
</svg>
